<svg xmlns="http://www.w3.org/2000/svg" viewBox="0 0 400 300" fill="none">
  <rect width="400" height="300" rx="12" fill="#FFFBEB"/>
  <!-- Trophy base -->
  <rect x="170" y="215" width="60" height="12" rx="3" fill="#B45309"/>
  <rect x="180" y="195" width="40" height="24" rx="2" fill="#D97706"/>
  <!-- Trophy cup -->
  <path d="M145 100 L145 160 Q145 195 200 195 Q255 195 255 160 L255 100 Z" fill="#D97706"/>
  <!-- Trophy inner -->
  <path d="M160 110 L160 155 Q160 180 200 180 Q240 180 240 155 L240 110 Z" fill="#FBBF24"/>
  <!-- Trophy handles -->
  <path d="M145 115 Q110 115 110 145 Q110 170 140 170" stroke="#D97706" stroke-width="8" fill="none" stroke-linecap="round"/>
  <path d="M255 115 Q290 115 290 145 Q290 170 260 170" stroke="#D97706" stroke-width="8" fill="none" stroke-linecap="round"/>
  <!-- Star on trophy -->
  <polygon points="200,115 208,133 228,136 214,149 217,170 200,160 183,170 186,149 172,136 192,133" fill="#D97706"/>
  <!-- Small stars around -->
  <polygon points="310,70 314,80 324,82 316,88 318,98 310,93 302,98 304,88 296,82 306,80" fill="#FBBF24" opacity="0.6"/>
  <polygon points="90,85 93,92 101,93 95,98 97,105 90,101 83,105 85,98 79,93 87,92" fill="#FBBF24" opacity="0.5"/>
  <polygon points="320,175 323,181 330,182 325,186 326,193 320,189 314,193 315,186 310,182 317,181" fill="#FBBF24" opacity="0.4"/>
  <polygon points="85,180 87,185 93,186 89,189 90,195 85,192 80,195 81,189 77,186 83,185" fill="#FBBF24" opacity="0.45"/>
  <!-- Title -->
  <text x="200" y="265" text-anchor="middle" font-family="sans-serif" font-size="16" font-weight="bold" fill="#D97706">Best CSR Cases</text>
</svg>