<svg xmlns="http://www.w3.org/2000/svg" viewBox="0 0 800 400" fill="none">
  <rect width="800" height="400" rx="16" fill="#FFFBEB"/>
  <!-- Buildings left -->
  <rect x="120" y="160" width="60" height="120" rx="4" fill="#D97706"/>
  <rect x="130" y="175" width="14" height="14" rx="2" fill="#FFFBEB"/>
  <rect x="156" y="175" width="14" height="14" rx="2" fill="#FFFBEB"/>
  <rect x="130" y="200" width="14" height="14" rx="2" fill="#FFFBEB"/>
  <rect x="156" y="200" width="14" height="14" rx="2" fill="#FFFBEB"/>
  <rect x="130" y="225" width="14" height="14" rx="2" fill="#FFFBEB"/>
  <rect x="156" y="225" width="14" height="14" rx="2" fill="#FFFBEB"/>
  <rect x="190" y="130" width="50" height="150" rx="4" fill="#B45309"/>
  <rect x="200" y="145" width="12" height="12" rx="2" fill="#FFFBEB"/>
  <rect x="220" y="145" width="12" height="12" rx="2" fill="#FFFBEB"/>
  <rect x="200" y="168" width="12" height="12" rx="2" fill="#FFFBEB"/>
  <rect x="220" y="168" width="12" height="12" rx="2" fill="#FFFBEB"/>
  <rect x="200" y="191" width="12" height="12" rx="2" fill="#FFFBEB"/>
  <rect x="220" y="191" width="12" height="12" rx="2" fill="#FFFBEB"/>
  <rect x="200" y="214" width="12" height="12" rx="2" fill="#FFFBEB"/>
  <rect x="220" y="214" width="12" height="12" rx="2" fill="#FFFBEB"/>
  <!-- Buildings right -->
  <rect x="570" y="150" width="55" height="130" rx="4" fill="#D97706"/>
  <rect x="580" y="165" width="12" height="12" rx="2" fill="#FFFBEB"/>
  <rect x="602" y="165" width="12" height="12" rx="2" fill="#FFFBEB"/>
  <rect x="580" y="188" width="12" height="12" rx="2" fill="#FFFBEB"/>
  <rect x="602" y="188" width="12" height="12" rx="2" fill="#FFFBEB"/>
  <rect x="580" y="211" width="12" height="12" rx="2" fill="#FFFBEB"/>
  <rect x="602" y="211" width="12" height="12" rx="2" fill="#FFFBEB"/>
  <rect x="635" y="170" width="60" height="110" rx="4" fill="#B45309"/>
  <rect x="645" y="185" width="14" height="14" rx="2" fill="#FFFBEB"/>
  <rect x="671" y="185" width="14" height="14" rx="2" fill="#FFFBEB"/>
  <rect x="645" y="210" width="14" height="14" rx="2" fill="#FFFBEB"/>
  <rect x="671" y="210" width="14" height="14" rx="2" fill="#FFFBEB"/>
  <rect x="645" y="235" width="14" height="14" rx="2" fill="#FFFBEB"/>
  <rect x="671" y="235" width="14" height="14" rx="2" fill="#FFFBEB"/>
  <!-- Ground line -->
  <rect x="80" y="280" width="640" height="4" rx="2" fill="#D97706" opacity="0.3"/>
  <!-- Handshake center -->
  <!-- Left hand -->
  <path d="M340 220 L340 240 Q340 255 355 255 L390 255 Q395 255 395 250 L395 240" stroke="#D97706" stroke-width="6" stroke-linecap="round" fill="none"/>
  <path d="M340 220 Q330 210 320 215 Q310 220 315 230 L330 245" stroke="#D97706" stroke-width="5" stroke-linecap="round" fill="none"/>
  <!-- Right hand -->
  <path d="M460 220 L460 240 Q460 255 445 255 L410 255 Q405 255 405 250 L405 240" stroke="#B45309" stroke-width="6" stroke-linecap="round" fill="none"/>
  <path d="M460 220 Q470 210 480 215 Q490 220 485 230 L470 245" stroke="#B45309" stroke-width="5" stroke-linecap="round" fill="none"/>
  <!-- Clasp -->
  <rect x="380" y="238" width="40" height="20" rx="10" fill="#D97706" opacity="0.8"/>
  <!-- Heart above handshake -->
  <path d="M400 140 C400 130 385 115 370 120 C355 125 355 145 370 160 L400 185 L430 160 C445 145 445 125 430 120 C415 115 400 130 400 140Z" fill="#D97706"/>
  <!-- Small sparkles -->
  <circle cx="340" cy="130" r="4" fill="#D97706" opacity="0.4"/>
  <circle cx="460" cy="125" r="3" fill="#D97706" opacity="0.3"/>
  <circle cx="370" cy="100" r="3" fill="#D97706" opacity="0.5"/>
  <circle cx="430" cy="105" r="4" fill="#D97706" opacity="0.35"/>
  <!-- Title -->
  <text x="400" y="340" text-anchor="middle" font-family="sans-serif" font-size="28" font-weight="bold" fill="#D97706">CSR - Corporate Social Responsibility</text>
</svg>