<svg xmlns="http://www.w3.org/2000/svg" viewBox="0 0 400 300" fill="none">
  <rect width="400" height="300" rx="12" fill="#F0FDF4"/>
  <!-- Title -->
  <text x="200" y="35" font-family="sans-serif" font-size="14" font-weight="bold" fill="#374151" text-anchor="middle">Global ESG Trends</text>
  <!-- Globe circle -->
  <circle cx="200" cy="155" r="65" fill="#059669" opacity="0.12" stroke="#059669" stroke-width="2.5"/>
  <!-- Globe lines (latitude) -->
  <ellipse cx="200" cy="155" rx="65" ry="25" fill="none" stroke="#059669" stroke-width="1" opacity="0.5"/>
  <ellipse cx="200" cy="155" rx="65" ry="50" fill="none" stroke="#059669" stroke-width="1" opacity="0.5"/>
  <!-- Globe lines (longitude) -->
  <line x1="200" y1="90" x2="200" y2="220" stroke="#059669" stroke-width="1" opacity="0.5"/>
  <ellipse cx="200" cy="155" rx="25" ry="65" fill="none" stroke="#059669" stroke-width="1" opacity="0.5"/>
  <!-- Outward arrows - top -->
  <line x1="200" y1="82" x2="200" y2="52" stroke="#059669" stroke-width="2.5"/>
  <polygon points="200,48 194,58 206,58" fill="#059669"/>
  <!-- Outward arrows - top right -->
  <line x1="246" y1="109" x2="268" y2="87" stroke="#059669" stroke-width="2.5"/>
  <polygon points="272,83 260,87 264,97" fill="#059669"/>
  <!-- Outward arrows - right -->
  <line x1="268" y1="155" x2="298" y2="155" stroke="#059669" stroke-width="2.5"/>
  <polygon points="302,155 292,149 292,161" fill="#059669"/>
  <!-- Outward arrows - bottom right -->
  <line x1="246" y1="201" x2="268" y2="223" stroke="#059669" stroke-width="2.5"/>
  <polygon points="272,227 260,223 264,213" fill="#059669"/>
  <!-- Outward arrows - bottom -->
  <line x1="200" y1="228" x2="200" y2="258" stroke="#059669" stroke-width="2.5"/>
  <polygon points="200,262 194,252 206,252" fill="#059669"/>
  <!-- Outward arrows - bottom left -->
  <line x1="154" y1="201" x2="132" y2="223" stroke="#059669" stroke-width="2.5"/>
  <polygon points="128,227 140,223 136,213" fill="#059669"/>
  <!-- Outward arrows - left -->
  <line x1="132" y1="155" x2="102" y2="155" stroke="#059669" stroke-width="2.5"/>
  <polygon points="98,155 108,149 108,161" fill="#059669"/>
  <!-- Outward arrows - top left -->
  <line x1="154" y1="109" x2="132" y2="87" stroke="#059669" stroke-width="2.5"/>
  <polygon points="128,83 140,87 136,97" fill="#059669"/>
  <!-- Center text -->
  <text x="200" y="160" font-family="sans-serif" font-size="16" font-weight="bold" fill="#059669" text-anchor="middle">ESG</text>
  <!-- Bottom label -->
  <text x="200" y="285" font-family="sans-serif" font-size="11" fill="#6B7280" text-anchor="middle">Spreading across all industries worldwide</text>
</svg>