<svg xmlns="http://www.w3.org/2000/svg" viewBox="0 0 400 300" fill="none">
  <rect width="400" height="300" rx="12" fill="#ECFEFF"/>
  <!-- Root node -->
  <circle cx="200" cy="55" r="25" fill="#0891B2"/>
  <text x="200" y="60" text-anchor="middle" font-family="sans-serif" font-size="11" font-weight="bold" fill="white">ESG</text>
  <!-- Level 1 branches -->
  <line x1="185" y1="78" x2="110" y2="120" stroke="#0891B2" stroke-width="2"/>
  <line x1="200" y1="80" x2="200" y2="120" stroke="#0891B2" stroke-width="2"/>
  <line x1="215" y1="78" x2="290" y2="120" stroke="#0891B2" stroke-width="2"/>
  <!-- Level 1 nodes -->
  <circle cx="110" cy="135" r="22" fill="#0891B2" opacity="0.85"/>
  <text x="110" y="140" text-anchor="middle" font-family="sans-serif" font-size="10" font-weight="bold" fill="white">E</text>
  <circle cx="200" cy="135" r="22" fill="#0891B2" opacity="0.85"/>
  <text x="200" y="140" text-anchor="middle" font-family="sans-serif" font-size="10" font-weight="bold" fill="white">S</text>
  <circle cx="290" cy="135" r="22" fill="#0891B2" opacity="0.85"/>
  <text x="290" y="140" text-anchor="middle" font-family="sans-serif" font-size="10" font-weight="bold" fill="white">G</text>
  <!-- Level 2 branches from E -->
  <line x1="95" y1="155" x2="60" y2="190" stroke="#0891B2" stroke-width="1.5" opacity="0.6"/>
  <line x1="110" y1="157" x2="110" y2="190" stroke="#0891B2" stroke-width="1.5" opacity="0.6"/>
  <line x1="125" y1="155" x2="160" y2="190" stroke="#0891B2" stroke-width="1.5" opacity="0.6"/>
  <!-- Level 2 nodes from E -->
  <rect x="40" y="192" width="42" height="22" rx="6" fill="#0891B2" opacity="0.5"/>
  <text x="61" y="207" text-anchor="middle" font-family="sans-serif" font-size="8" fill="white">Carbon</text>
  <rect x="89" y="192" width="42" height="22" rx="6" fill="#0891B2" opacity="0.5"/>
  <text x="110" y="207" text-anchor="middle" font-family="sans-serif" font-size="8" fill="white">Water</text>
  <rect x="139" y="192" width="42" height="22" rx="6" fill="#0891B2" opacity="0.5"/>
  <text x="160" y="207" text-anchor="middle" font-family="sans-serif" font-size="8" fill="white">Waste</text>
  <!-- Level 2 branches from S -->
  <line x1="188" y1="155" x2="200" y2="190" stroke="#0891B2" stroke-width="1.5" opacity="0.6"/>
  <line x1="212" y1="155" x2="240" y2="190" stroke="#0891B2" stroke-width="1.5" opacity="0.6"/>
  <!-- Level 2 nodes from S -->
  <rect x="178" y="192" width="44" height="22" rx="6" fill="#0891B2" opacity="0.5"/>
  <text x="200" y="207" text-anchor="middle" font-family="sans-serif" font-size="8" fill="white">Labor</text>
  <rect x="218" y="192" width="44" height="22" rx="6" fill="#0891B2" opacity="0.5"/>
  <text x="240" y="207" text-anchor="middle" font-family="sans-serif" font-size="8" fill="white">Safety</text>
  <!-- Level 2 branches from G -->
  <line x1="278" y1="155" x2="290" y2="190" stroke="#0891B2" stroke-width="1.5" opacity="0.6"/>
  <line x1="302" y1="155" x2="340" y2="190" stroke="#0891B2" stroke-width="1.5" opacity="0.6"/>
  <!-- Level 2 nodes from G -->
  <rect x="268" y="192" width="44" height="22" rx="6" fill="#0891B2" opacity="0.5"/>
  <text x="290" y="207" text-anchor="middle" font-family="sans-serif" font-size="8" fill="white">Board</text>
  <rect x="318" y="192" width="44" height="22" rx="6" fill="#0891B2" opacity="0.5"/>
  <text x="340" y="207" text-anchor="middle" font-family="sans-serif" font-size="8" fill="white">Ethics</text>
  <!-- Level 3 leaf dots -->
  <circle cx="50" cy="235" r="5" fill="#0891B2" opacity="0.3"/>
  <circle cx="72" cy="235" r="5" fill="#0891B2" opacity="0.3"/>
  <circle cx="100" cy="235" r="5" fill="#0891B2" opacity="0.3"/>
  <circle cx="120" cy="235" r="5" fill="#0891B2" opacity="0.3"/>
  <circle cx="150" cy="235" r="5" fill="#0891B2" opacity="0.3"/>
  <circle cx="170" cy="235" r="5" fill="#0891B2" opacity="0.3"/>
  <line x1="50" y1="214" x2="50" y2="230" stroke="#0891B2" stroke-width="1" opacity="0.3"/>
  <line x1="72" y1="214" x2="72" y2="230" stroke="#0891B2" stroke-width="1" opacity="0.3"/>
  <line x1="100" y1="214" x2="100" y2="230" stroke="#0891B2" stroke-width="1" opacity="0.3"/>
  <line x1="120" y1="214" x2="120" y2="230" stroke="#0891B2" stroke-width="1" opacity="0.3"/>
  <line x1="150" y1="214" x2="150" y2="230" stroke="#0891B2" stroke-width="1" opacity="0.3"/>
  <line x1="170" y1="214" x2="170" y2="230" stroke="#0891B2" stroke-width="1" opacity="0.3"/>
  <!-- Label -->
  <text x="200" y="275" text-anchor="middle" font-family="sans-serif" font-size="12" fill="#0891B2" opacity="0.6">ESG Taxonomy Classification</text>
</svg>