<svg xmlns="http://www.w3.org/2000/svg" viewBox="0 0 400 300" fill="none">
  <rect width="400" height="300" rx="12" fill="#EFF6FF"/>
  <!-- Clipboard body -->
  <rect x="120" y="60" width="160" height="180" rx="8" fill="#DBEAFE" stroke="#2563EB" stroke-width="2"/>
  <!-- Clipboard clip -->
  <rect x="170" y="50" width="60" height="20" rx="4" fill="#2563EB"/>
  <rect x="185" y="45" width="30" height="14" rx="4" fill="#3B82F6"/>
  <!-- Checklist items -->
  <!-- Item 1 - checked -->
  <rect x="145" y="95" width="18" height="18" rx="3" fill="#2563EB"/>
  <path d="M149 104 L153 108 L160 100" stroke="#EFF6FF" stroke-width="2.5" stroke-linecap="round" stroke-linejoin="round"/>
  <rect x="172" y="100" width="85" height="6" rx="3" fill="#93C5FD"/>
  <!-- Item 2 - checked -->
  <rect x="145" y="125" width="18" height="18" rx="3" fill="#2563EB"/>
  <path d="M149 134 L153 138 L160 130" stroke="#EFF6FF" stroke-width="2.5" stroke-linecap="round" stroke-linejoin="round"/>
  <rect x="172" y="130" width="70" height="6" rx="3" fill="#93C5FD"/>
  <!-- Item 3 - checked -->
  <rect x="145" y="155" width="18" height="18" rx="3" fill="#2563EB"/>
  <path d="M149 164 L153 168 L160 160" stroke="#EFF6FF" stroke-width="2.5" stroke-linecap="round" stroke-linejoin="round"/>
  <rect x="172" y="160" width="80" height="6" rx="3" fill="#93C5FD"/>
  <!-- Item 4 - checked -->
  <rect x="145" y="185" width="18" height="18" rx="3" fill="#2563EB"/>
  <path d="M149 194 L153 198 L160 190" stroke="#EFF6FF" stroke-width="2.5" stroke-linecap="round" stroke-linejoin="round"/>
  <rect x="172" y="190" width="60" height="6" rx="3" fill="#93C5FD"/>
  <!-- Big checkmark overlay -->
  <circle cx="300" cy="85" r="30" fill="#2563EB"/>
  <path d="M285 85 L296 96 L318 72" stroke="#EFF6FF" stroke-width="5" stroke-linecap="round" stroke-linejoin="round"/>
  <!-- Small decorative elements -->
  <circle cx="80" cy="120" r="5" fill="#BFDBFE"/>
  <circle cx="345" cy="180" r="5" fill="#BFDBFE"/>
  <rect x="330" y="140" width="12" height="3" rx="1.5" fill="#DBEAFE"/>
  <rect x="330" y="148" width="8" height="3" rx="1.5" fill="#DBEAFE"/>
  <!-- Label -->
  <text x="200" y="272" text-anchor="middle" font-family="sans-serif" font-size="18" font-weight="bold" fill="#2563EB">Compliance</text>
</svg>