<svg xmlns="http://www.w3.org/2000/svg" viewBox="0 0 800 400" fill="none">
  <rect width="800" height="400" rx="16" fill="#FFF1F2"/>
  <!-- Ground -->
  <rect x="100" y="300" width="600" height="4" rx="2" fill="#E11D48" opacity="0.2"/>
  <!-- Seedling / plant in center -->
  <!-- Stem -->
  <rect x="396" y="180" width="8" height="120" rx="4" fill="#059669"/>
  <!-- Leaves -->
  <ellipse cx="380" cy="200" rx="28" ry="14" transform="rotate(-30 380 200)" fill="#10B981"/>
  <ellipse cx="420" cy="175" rx="30" ry="15" transform="rotate(25 420 175)" fill="#059669"/>
  <ellipse cx="375" cy="155" rx="25" ry="12" transform="rotate(-20 375 155)" fill="#10B981"/>
  <ellipse cx="425" cy="140" rx="27" ry="13" transform="rotate(30 425 140)" fill="#059669"/>
  <!-- Top leaf -->
  <ellipse cx="400" cy="115" rx="20" ry="30" fill="#10B981"/>
  <!-- Soil mound -->
  <ellipse cx="400" cy="300" rx="60" ry="15" fill="#92400E" opacity="0.4"/>
  <!-- Community people - left group -->
  <!-- Person 1 -->
  <circle cx="180" cy="240" r="18" fill="#E11D48"/>
  <rect x="168" y="262" width="24" height="40" rx="8" fill="#E11D48"/>
  <!-- Person 2 -->
  <circle cx="230" cy="245" r="16" fill="#FB7185"/>
  <rect x="220" y="265" width="20" height="36" rx="7" fill="#FB7185"/>
  <!-- Person 3 -->
  <circle cx="270" cy="250" r="15" fill="#E11D48" opacity="0.7"/>
  <rect x="261" y="269" width="18" height="32" rx="6" fill="#E11D48" opacity="0.7"/>
  <!-- Community people - right group -->
  <!-- Person 4 -->
  <circle cx="530" cy="250" r="15" fill="#E11D48" opacity="0.7"/>
  <rect x="521" y="269" width="18" height="32" rx="6" fill="#E11D48" opacity="0.7"/>
  <!-- Person 5 -->
  <circle cx="570" cy="245" r="16" fill="#FB7185"/>
  <rect x="560" y="265" width="20" height="36" rx="7" fill="#FB7185"/>
  <!-- Person 6 -->
  <circle cx="620" cy="240" r="18" fill="#E11D48"/>
  <rect x="608" y="262" width="24" height="40" rx="8" fill="#E11D48"/>
  <!-- Connecting arcs from people to plant -->
  <path d="M230 260 Q320 220 395 270" stroke="#E11D48" stroke-width="2" opacity="0.25" fill="none"/>
  <path d="M570 260 Q480 220 405 270" stroke="#E11D48" stroke-width="2" opacity="0.25" fill="none"/>
  <!-- Small hearts -->
  <path d="M340 140 C340 136 335 132 331 134 C327 136 327 141 331 145 L340 152 L349 145 C353 141 353 136 349 134 C345 132 340 136 340 140Z" fill="#E11D48" opacity="0.4"/>
  <path d="M460 130 C460 126 455 122 451 124 C447 126 447 131 451 135 L460 142 L469 135 C473 131 473 126 469 124 C465 122 460 126 460 130Z" fill="#E11D48" opacity="0.35"/>
  <!-- Sun -->
  <circle cx="680" cy="80" r="35" fill="#FBBF24" opacity="0.5"/>
  <circle cx="680" cy="80" r="25" fill="#FBBF24" opacity="0.7"/>
  <!-- Title -->
  <text x="400" y="365" text-anchor="middle" font-family="sans-serif" font-size="28" font-weight="bold" fill="#E11D48">Social Economy</text>
</svg>